<svg id="Layer_1" xmlns="http://www.w3.org/2000/svg" xmlns:xlink="http://www.w3.org/1999/xlink" viewBox="0 0 1492.7 1300"><style>.st0{fill-rule:evenodd;clip-rule:evenodd;fill:none}.st1{fill:#040303}.st1,.st2{fill-rule:evenodd;clip-rule:evenodd}.st2{fill:url(#SVGID_1_)}</style><pattern x="439.7" y="254" width="508.5" height="599.5" patternUnits="userSpaceOnUse" id="New_Pattern_2" viewBox="56.3 -648 508.5 599.5" overflow="visible"><path class="st0" d="M56.3-648h508.5v599.5H56.3z"/><path class="st1" d="M600.6-338.8c2.9 5 5.4 9.4 8 13.8 4.4 7.4 4.7 7.9 13.4 3.6 1.1-.5 1.5-1.9 1-3l-6.9-13.2c-2.3-4.2-4.9-8.3-6.8-12.6-1.8-4.1-4.2-4.3-8.4-1.7-4.4 2.7-9.2 4.9-13.8 7.4-3.6 2-5.9 1.8-8.5-1-8.9-9.9-9-9.8-22-2.1-5.2 3.1-10.5 6-15.4 9.3-1.1.7-1.6 3.5-.8 4.4 5.4 6.4 5.6 6.3 13.8 1.5 11.8-6.9 12.1-7.1 20.3 1.5 3.7 3.9 6.6 3.8 11.3.7 4.3-2.9 9.3-5.5 14.8-8.6M572.8-424.8c-2.2 1.2-5.2-.1-6.2-2.4-4.8-10.4-8.6-20.2-14-29.7-1.6-2.8.2-7.2 1.8-8.2 11.4-7.2 23.4-13.3 34.9-20.3 2.7-1.6 4.5-1.1 7.3 3.8 1.5 2.6 2.8 5.3-1.9 8.1-7.3 4.4-14.7 8.6-22.3 12.7-4 2.1-4.8 4.2-3.3 7.4 2.8 6 5.4 12.2 8.2 18.2 3 6.3 3 6.3-4.5 10.4-.2.1.2-.1 0 0zM397.4-225.9c.3-1.1-.6-2.1-1.7-1.9-9.2 1.3-17.8 2-25.5 3.1-4.8.7-6.7.8-7.8-3.3-.3-1.2-1.2-4-1.6-5.2-2-5.6-1.6-7.3-11.7-5.9-7.4 1.1-14.8 2.1-22.1 3.5-1.8.4-7.3 1.1-6.9 4.6.7 6.4.6 8.5 9.5 7 4.4-.7 8.9-1.1 13.3-1.9 3.8-.7 6.2-.1 7.1 3.2.8 2.9 1.7 5.8 2.7 8.6 1.5 3.9 2.5 4 6.3 3.2 5.5-1.2 8.9-1.7 15.5-2.9 1.1-.2 4.1-.9 4 1.5-.1 5.6-2 10.3-3.3 14.9-1.1 4.1.3 6.1 5.6 6.8 4.6.6 7.5.6 8.5-4.1 2.4-10.1 5.2-20.1 8.1-31.2zM278.5-545.7c.3-1.1 1.6-1.5 2.4-.9 7.5 5.6 14.7 10.3 20.9 14.9 3.9 2.9 5.5 3.9 8.4.8.8-.9 2.9-3 3.8-3.8 4.4-4 4.9-5.7 13.1.4 6 4.5 12 8.9 17.7 13.6 1.4 1.2 5.8 4.4 3.8 7.3-3.7 5.3-4.6 7.2-11.7 1.6-3.5-2.8-7.3-5.2-10.7-8-3-2.5-5.4-3.1-7.8-.6-2.1 2.2-4.2 4.3-6.5 6.2-3.2 2.7-4.1 2.3-7-.2-4.3-3.7-7-5.8-12.2-9.9-.9-.7-3.1-2.7-4.2-.6-2.6 5-3.2 10-4.3 14.7-1 4.2-3.2 5.2-8.2 3.3-4.3-1.7-6.9-3-5.5-7.7 3-9.8 5.3-19.9 8-31.1zM289.4-376c-2 5.4-3.8 10.2-5.6 15-3.1 8.1-3.3 8.6-12.6 5.7-1.2-.4-1.8-1.6-1.4-2.8 1.5-4.7 3.1-9.4 4.7-14.1 1.5-4.5 3.5-9 4.7-13.6 1.1-4.3 3.4-4.9 8.1-3 4.8 1.9 9.9 3.3 14.8 5 3.8 1.4 6.1.8 8.2-2.4 7.1-11.3 7.3-11.2 21.3-5.7 5.6 2.2 11.3 4.2 16.7 6.7 1.2.5 2.2 3.2 1.6 4.2-4.2 7.2-4.5 7.2-13.4 3.8-12.8-4.9-13.1-5-19.8 4.8-3 4.4-5.9 4.9-11 2.6-5.1-2.2-10.4-3.9-16.3-6.2M544.4-119.9c-2 5.4-3.8 10.2-5.6 15-3.1 8.1-3.3 8.6-12.6 5.7-1.2-.4-1.8-1.6-1.4-2.8 1.5-4.7 3.1-9.4 4.7-14.1 1.5-4.5 3.5-9 4.7-13.6 1.1-4.3 3.4-4.9 8.1-3 4.8 1.9 9.9 3.3 14.8 5 3.8 1.4 6.1.8 8.2-2.4 7.1-11.3 7.3-11.2 21.3-5.7 5.6 2.2 11.3 4.2 16.7 6.7 1.2.5 2.2 3.2 1.6 4.2-4.2 7.2-4.5 7.2-13.4 3.8-12.8-4.9-13.1-5-19.8 4.8-3 4.4-5.9 4.9-11 2.6-5-2.2-10.3-4-16.3-6.2M159.3-449.9c-2 5.4-3.8 10.2-5.6 15-3.1 8.1-3.3 8.6-12.6 5.7-1.2-.4-1.8-1.6-1.4-2.8 1.5-4.7 3.1-9.4 4.7-14.1 1.5-4.5 3.5-9 4.7-13.6 1.1-4.3 3.4-4.9 8.1-3 4.8 1.9 9.9 3.3 14.8 5 3.8 1.4 6.1.8 8.2-2.4 7.1-11.3 7.3-11.2 21.3-5.7 5.6 2.2 11.3 4.2 16.7 6.7 1.2.5 2.2 3.2 1.6 4.2-4.2 7.2-4.5 7.2-13.4 3.8-12.8-4.9-13.1-5-19.8 4.8-3 4.4-5.9 4.9-11 2.6-5-2.3-10.4-4-16.3-6.2M174.9-107.1c5.2-2.7 9.7-5 14.2-7.3 7.7-3.9 8.2-4.2 13.2 4.2.6 1.1.3 2.4-.8 3-4.3 2.4-8.6 4.9-13 7.3-4.2 2.3-8.6 4.3-12.6 6.9-3.7 2.5-5.8 1.3-8-3.2-2.2-4.6-5.2-9.1-7.6-13.7-1.9-3.6-4-4.7-7.7-3.7-12.9 3.5-12.9 3.4-19.6-10.1-2.7-5.4-5.6-10.7-7.9-16.2-.5-1.2.5-3.8 1.7-4.2 8-2.5 8.1-2.3 12.4 6.2 6.2 12.2 6.3 12.5 17.9 9.7 5.2-1.3 7.7.4 9.9 5.5s5 10 7.9 15.6M293.4-598.4c4-4.2 7.4-8 10.9-11.6 5.9-6.2 6.3-6.7 13.9-.4.9.8 1.1 2.2.3 3.1-3.2 3.7-6.5 7.5-9.8 11.3-3.2 3.6-6.7 6.9-9.5 10.7-2.7 3.6-5.1 3.2-8.6-.3-3.7-3.6-7.9-6.8-11.7-10.4-3-2.8-5.3-3.1-8.5-.9-10.9 7.6-11 7.5-21.9-3-4.3-4.2-8.8-8.2-12.9-12.6-.9-1-.8-3.8.2-4.5 6.7-5 6.9-4.9 13.8 1.7 9.9 9.4 10.1 9.7 20.1 3.2 4.5-2.9 7.3-2.2 11.1 1.8 3.7 3.9 8 7.5 12.6 11.9M399.3-447.3c5.5-1.9 10.3-3.6 15.1-5.3 8.1-2.8 8.7-3 12.5 6 .5 1.1-.1 2.4-1.2 2.9-4.6 1.8-9.2 3.7-13.9 5.5-4.5 1.7-9.1 3.1-13.4 5.1-4 1.9-6 .5-7.5-4.2-1.6-4.9-3.9-9.7-5.6-14.6-1.4-3.8-3.3-5.2-7.1-4.7-13.2 1.7-13.3 1.6-18-12.7-1.9-5.7-4.1-11.4-5.6-17.1-.3-1.3 1.1-3.7 2.2-3.9 8.2-1.4 8.4-1.2 11.5 7.8 4.4 12.9 4.5 13.3 16.3 12.1 5.4-.5 7.5 1.4 9 6.8 1.5 5.1 3.6 10.3 5.7 16.3M518.2-302.8c5.6 1.6 10.4 3.1 15.3 4.6 8.2 2.5 8.8 2.7 6.6 12.2-.3 1.2-1.5 1.9-2.7 1.6-4.8-1.2-9.6-2.4-14.4-3.7-4.6-1.2-9.2-2.8-13.8-3.7-4.4-.8-5.1-3.1-3.6-7.8 1.6-4.9 2.6-10.1 4-15.1 1.1-3.9.4-6.2-3-8-11.7-6.3-11.7-6.5-7.1-20.9 1.8-5.7 3.4-11.6 5.5-17.1.5-1.2 3-2.4 4.1-1.8 7.5 3.7 7.5 4 4.7 13.1-4 13.1-4.1 13.4 6.2 19.4 4.6 2.7 5.3 5.6 3.3 10.8-2 4.9-3.3 10.3-5.1 16.4M476.8-236.5c5-3 9.4-5.5 13.7-8.2 7.4-4.5 7.9-4.8 3.4-13.4-.6-1.1-1.9-1.5-3-.9-4.3 2.3-8.7 4.7-13.1 7.1-4.2 2.3-8.2 5-12.5 7-4.1 1.9-4.2 4.2-1.5 8.5 2.8 4.4 5 9.2 7.6 13.7 2.1 3.5 1.9 5.9-.9 8.5-9.8 9-9.7 9.2-1.8 22 3.2 5.1 6.1 10.4 9.5 15.3.7 1.1 3.5 1.6 4.4.8 6.3-5.4 6.2-5.7 1.3-13.8-7.1-11.7-7.3-12 1.2-20.3 3.8-3.8 3.8-6.7.6-11.3-3-4.6-5.6-9.6-8.9-15M150.7-501.9c5.5-1.9 10.3-3.6 15.1-5.3 8.1-2.8 8.7-3 12.5 6 .5 1.1-.1 2.4-1.2 2.9-4.6 1.8-9.2 3.7-13.9 5.5-4.5 1.7-9.1 3.1-13.4 5.1-4 1.9-6 .5-7.5-4.2-1.6-4.9-3.9-9.7-5.6-14.6-1.4-3.8-3.3-5.2-7.1-4.7-13.2 1.7-13.3 1.6-18-12.7-1.9-5.7-4.1-11.4-5.6-17.1-.3-1.3 1.1-3.7 2.2-3.9 8.2-1.4 8.4-1.2 11.5 7.8 4.4 12.9 4.5 13.3 16.3 12.1 5.4-.5 7.5 1.4 9 6.8 1.5 5.1 3.6 10.3 5.7 16.3M92.1-338.8c2.9 5 5.4 9.4 8 13.8 4.4 7.4 4.7 7.9 13.4 3.6 1.1-.5 1.5-1.9 1-3l-6.9-13.2c-2.3-4.2-4.9-8.3-6.8-12.6-1.8-4.1-4.2-4.3-8.4-1.7-4.4 2.7-9.2 4.9-13.8 7.4-3.6 2-5.9 1.8-8.5-1-8.9-9.9-9-9.8-22-2.1-5.2 3.1-10.5 6-15.4 9.3-1.1.7-1.6 3.5-.8 4.4 5.4 6.4 5.6 6.3 13.8 1.5 11.8-6.9 12.1-7.1 20.3 1.5 3.7 3.9 6.6 3.8 11.3.7 4.3-2.9 9.3-5.5 14.8-8.6M380.4-34.1c5.5-1.9 10.3-3.6 15.1-5.3 8.1-2.8 8.7-3 12.5 6 .5 1.1-.1 2.4-1.2 2.9-4.6 1.8-9.2 3.7-13.9 5.5-4.5 1.7-9.1 3.1-13.4 5.1-4 1.9-6 .5-7.5-4.2-1.6-4.9-3.9-9.7-5.6-14.6-1.4-3.8-3.3-5.2-7.1-4.7-13.2 1.7-13.3 1.6-18-12.7-1.9-5.7-4.1-11.4-5.6-17.1-.3-1.3 1.1-3.7 2.2-3.9 8.2-1.4 8.4-1.2 11.5 7.8 4.4 12.9 4.5 13.3 16.3 12.1 5.4-.5 7.5 1.4 9 6.8 1.5 5.1 3.6 10.3 5.7 16.3M286.7-222.8c2.2.3 3.5 2.5 2.7 4.6-5.1 12-9.6 23.3-14.8 34.3-2.3 5-6.5 1.6-10.5.3-.8-.3-2.4-3-1.9-4.2 2.6-6.8 5.4-13.4 8.5-20.6 1-2.4-.5-5.2-3.1-5.5-5.7-.8-11.3-1.6-17.1-2.4-2.6-.4-4.1-3-3.2-5.4 4-10.3 7.9-20.2 11.8-30.2.7-1.7 2.5-2.8 4.3-2.5 9.6 1.6 9.5 1.6 6.4 8.9-2.1 5.1-3.9 10.3-6.1 15.4-1.4 3.3-.4 4.8 4 5.2 6.1.4 12 1.2 19 2.1zM495.3-117.9c2.2.3 3.5 2.5 2.7 4.6-5.1 12-9.6 23.3-14.8 34.3-2.3 5-6.5 1.6-10.5.3-.8-.3-2.4-3-1.9-4.2 2.6-6.8 5.4-13.4 8.5-20.6 1-2.4-.5-5.2-3.1-5.5-5.7-.8-11.3-1.6-17.1-2.4-2.6-.4-4.1-3-3.2-5.4 4-10.3 7.9-20.2 11.8-30.2.7-1.7 2.5-2.8 4.3-2.5 9.6 1.6 9.5 1.6 6.4 8.9-2.1 5.1-3.9 10.3-6.1 15.4-1.4 3.3-.4 4.8 4 5.2 6.1.5 12.1 1.2 19 2.1zM109.2-290.4c1.1-1.9 3.7-2.2 5.2-.6 9.1 9.4 17.6 18 25.8 27.1 3.7 4.1-1.1 6.6-3.8 9.8-.6.7-3.7 1-4.7.1-5.2-5-10.2-10.3-15.6-15.9-1.8-1.9-5-1.6-6.3.7-3 5-5.9 9.8-9 14.8-1.3 2.2-4.4 2.6-6.3.8-7.9-7.8-15.5-15.3-23.1-22.7-1.3-1.3-1.6-3.4-.5-5 5.3-8.2 5.2-8.1 10.8-2.4 3.9 4 7.9 7.6 11.7 11.7 2.5 2.6 4.2 2.3 6.3-1.7 2.9-5.5 6-10.7 9.5-16.7zM350.2-582.7c-1.7-1.4-1.5-4 .3-5.3 10.8-7.3 20.8-14.2 31.2-20.6 4.7-2.9 6.3 2.3 8.9 5.5.6.7.3 3.8-.7 4.6-5.9 4.2-11.9 8.3-18.4 12.6-2.2 1.5-2.4 4.6-.4 6.4 4.4 3.8 8.6 7.5 13 11.4 1.9 1.7 1.8 4.8-.3 6.3-9 6.4-17.7 12.6-26.4 18.7-1.5 1.1-3.6.9-5-.3-7.1-6.6-7.1-6.6-.5-11 4.6-3.1 8.9-6.5 13.5-9.5 3-2 3-3.8-.5-6.5-4.8-3.9-9.4-7.8-14.7-12.3zM287.5-486.9c2.7-.1 4.7 2.5 4 5.1-1.3 5.1-2.6 9.9-4 14.7-1 3.5-.2 5 3.6 5.4 5.4.6 12.7.1 15.2 3.1 2.5 3.1.3 9.8 0 14.9-.2 4.6-.9 9.3-.9 13.8 0 3.8-1.6 5.6-5.9 5.8-.9 0-1.8.1-2.7.3-3 .4-5.7-2-5.5-5 .2-4.9.5-9.8.9-14.6.4-3.6-.8-5.3-4.5-5.8-4.4-.6-8.7-1.4-13.3-2.3-2.8-.5-4.6-3.3-3.8-6.1 2.5-9 4.4-15.6 7-24.6.3-.8 1.1-3.9 4-4.6 2-.2 3.9 0 5.9-.1zM523.5-409.1c1.3-2.4 4.5-2.9 6.4-1.1 3.8 3.6 7.5 7 11 10.6 2.6 2.6 4.3 2.6 6.5-.6 3.1-4.4 6.2-11.1 10-11.8 3.9-.8 8.7 4.4 13.1 7.2 3.9 2.4 7.7 5.2 11.7 7.5 3.3 1.9 4.1 4.1 2.3 7.9-.4.8-.7 1.7-1.1 2.5-1.1 2.9-4.5 4-7.1 2.4-4.2-2.6-8.3-5.1-12.4-7.8-3-2-5-1.8-7.3 1.2-2.6 3.5-5.4 6.9-8.4 10.6-1.8 2.2-5.1 2.4-7.2.4-6.7-6.6-11.6-11.3-18.1-18-.6-.6-2.9-2.9-2.1-5.7.7-1.9 1.8-3.5 2.7-5.3zM337.3-305.9c-1.9.3-3.7-.8-4.5-2.6-4.3-10.3-8.6-20.2-12.5-30.2-.4-1.1.1-3.1 3-4.1 2.7-.9 5.2-2.7 7.6 2.9 2.1 4.9 4.5 9.6 6.2 14.6 1.8 5.4 4.5 6.4 8.8 5.2 4.1-1.1 8.4-1.8 12.8-2.3 1.2-.1 3.9 1.1 4.2 1.9 3.8 12.3 7.2 24.7 10.7 36.6.2.6 0 1.3-.4 1.8-.1.1-.1.1-.2.1-10.6 1.9-10.6 1.9-13.9-9.7-1.1-4-2.3-8-3.3-12-.9-3.6-2.3-5-5.7-4.3-4.2 1.1-8.4 1.6-12.8 2.1zM180.3-204.5c-1 1.7-2.9 2.5-4.7 2-10.8-2.9-21.2-5.5-31.5-8.5-1.1-.3-2.4-2-1.4-4.9.9-2.7 1.1-5.8 7-4.3 5.1 1.3 10.4 2.3 15.3 4 5.4 1.9 7.8.3 9.5-3.7 1.6-3.9 3.7-7.8 6-11.5.6-1.1 3.2-2.4 4-2.1 12.1 4.5 24 9.3 35.5 13.9.6.2 1.1.8 1.2 1.4v.2c-4.9 9.6-4.9 9.6-16.2 5.1-3.9-1.5-7.8-3-11.5-4.7-3.4-1.5-5.4-1.2-6.9 1.9-2 3.8-4.1 7.4-6.3 11.2zM402.9-156.8c-1 1.7-2.9 2.5-4.7 2-10.8-2.9-21.2-5.5-31.5-8.5-1.1-.3-2.4-2-1.4-4.9.9-2.7 1.1-5.8 7-4.3 5.1 1.3 10.4 2.3 15.3 4 5.4 1.9 7.8.3 9.5-3.7 1.6-3.9 3.7-7.8 6-11.5.6-1.1 3.2-2.4 4-2.1 12.1 4.5 24 9.3 35.5 13.9.6.2 1.1.8 1.2 1.4v.2c-4.9 9.6-4.9 9.6-16.2 5.1-3.9-1.5-7.8-3-11.5-4.7-3.4-1.5-5.4-1.2-6.9 1.9-2 3.7-4.1 7.4-6.3 11.2zM259.7-304.3c-.8-1.6-1.4-2.7-2-3.8-3.9-6.8-7.7-13.6-11.8-20.3-3.5-5.7 3.4-4.7 5.9-6.7 2.8-2.1 5.2-.9 6.6 1.6 5.7 9.9 11.6 19.8 17.5 29.6 1.8 3 1.6 5-2.4 6.7-11.6 4.9-23.1 10-34.5 15-3.1 1.4-6 2.4-7.5-1.4-1.2-3.1-5.3-7 1.8-9.5 7.8-2.7 25.1-10.4 26.4-11.2M179.5-23.5c-.8-1.6-1.4-2.7-2-3.8-3.9-6.8-7.7-13.6-11.8-20.3-3.5-5.7 3.4-4.7 5.9-6.7 2.8-2.1 5.2-.9 6.6 1.6 5.7 9.9 11.6 19.8 17.5 29.6 1.8 3 1.6 5-2.4 6.7-11.6 4.9-23.1 10-34.5 15-3.1 1.4-6 2.4-7.5-1.4-1.2-3.1-5.3-7 1.8-9.5 7.7-2.7 25.1-10.4 26.4-11.2M377.8-406.1c1.7-1.9 4.9-1.6 6.7.1 8 8.2 14.9 16.1 23.2 23.3 2.4 2.1 2.3 6.8 1.1 8.3-8.3 10.6-17.5 20.5-26 30.9-2 2.4-3.8 2.6-8.2-1.1-2.3-1.9-4.4-4-1-8.3 5.3-6.6 11-13.1 16.7-19.4 3-3.3 3.1-5.6.6-8.1-4.7-4.7-9.2-9.6-13.9-14.4-4.8-4.9-4.8-4.8.8-11.3.2-.1-.1.2 0 0zM510.2-160.1c-2-1.4-2.2-4.7-.7-6.7 7.1-8.9 14.2-16.7 20.3-25.8 1.8-2.6 6.5-3.1 8.1-2.1 11.6 6.9 22.4 14.9 33.8 22.1 2.7 1.7 3 3.5-.1 8.2-1.6 2.5-3.5 4.8-8.1 1.9-7.2-4.5-14.3-9.3-21.3-14.2-3.7-2.6-5.9-2.4-8.1.4-4.1 5.2-8.4 10.3-12.6 15.5-4.2 5.5-4.2 5.5-11.3.7-.2-.1.2.1 0 0zM438.5-618.8c.1-2.5 2.7-4.4 5.2-4.2 11.4 1.1 21.7 2.8 32.7 3 3.2.1 6.1 3.8 6.1 5.6.4 13.5-.3 26.9-.2 40.4 0 3.1-1.3 4.4-7 4.4-3 0-5.9-.3-6-5.7-.1-8.5 0-17.1.4-25.6.2-4.5-1.2-6.2-4.7-6.6-6.6-.6-13.2-1.5-19.9-2.2-6.8-.5-6.8-.5-6.6-9.1 0-.2 0 .2 0 0zM74.7-567.3c-2-1.5-2.1-4.8-.5-6.7 7.3-8.7 14.6-16.4 20.9-25.3 1.8-2.6 6.5-2.9 8.1-1.9 11.4 7.2 22.1 15.4 33.3 22.9 2.6 1.7 2.9 3.5-.3 8.2-1.7 2.4-3.6 4.7-8.1 1.8-7.1-4.7-14.1-9.6-21-14.7-3.6-2.7-5.8-2.5-8.1.2-4.2 5.1-8.7 10.1-13 15.2-4.4 5.2-4.3 5.3-11.3.3-.2-.2.2.1 0 0zM64.3-424.8c-2.2 1.2-5.2-.1-6.2-2.4-4.8-10.4-8.6-20.2-14-29.7-1.6-2.8.2-7.2 1.8-8.2 11.4-7.2 23.4-13.3 34.9-20.3 2.7-1.6 4.5-1.1 7.3 3.8 1.5 2.6 2.8 5.3-1.9 8.1-7.3 4.4-14.7 8.6-22.3 12.7-4 2.1-4.8 4.2-3.3 7.4 2.8 6 5.4 12.2 8.2 18.2 2.9 6.3 3 6.3-4.5 10.4-.2.1.2-.1 0 0zM554.5-38c.7 2.4-1.3 5.1-3.7 5.6-11.2 2.4-21.6 3.9-32.1 7.1-3.1.9-6.9-1.7-7.6-3.5-4.5-12.7-7.9-25.7-12.1-38.5-1-3-.1-4.6 5.3-6.3 2.8-.9 5.7-1.5 7.5 3.6 2.7 8.1 5.2 16.3 7.5 24.5 1.2 4.3 3.1 5.6 6.5 4.8 6.5-1.5 13.1-2.6 19.6-4 6.7-1.5 6.7-1.5 9.1 6.7.1.2 0-.2 0 0zM208.8-409.1c-5.4 3.4-10.5 6.6-15.9 10-1.7 1.1-4 .7-5.3-.9-1.6-2-3.1-3.8-4.3-5.8-.5-.7.6-2.7 1.7-3.3 7.8-4.8 15.6-9.6 23.7-14.1 1.4-.7 4.8-.3 6.2.6 4.4 2.8 7.9 8.2 12.5 8.7 4.4.5 9.6-3.7 14.5-5.9 1.1-.5 2.2-1 3.4-1.5 1.7-.8 3.7-.3 4.8 1.2.6.8 1.3 1.6 1.9 2.5 1.6 2 .9 4.9-1.4 6.1-8.3 4.2-16.4 8.3-24.7 12.2-1 .5-3.9-.7-5.1-1.8-2.7-2.3-5.1-4.9-7.8-7.6-1.1-1.1-2.8-1.3-4.2-.4zM189.5-543.8c-5.4 3.4-10.5 6.6-15.9 10-1.7 1.1-4 .7-5.3-.9-1.6-2-3.1-3.8-4.3-5.8-.5-.7.6-2.7 1.7-3.3 7.8-4.8 15.6-9.6 23.7-14.1 1.4-.7 4.8-.3 6.2.6 4.4 2.8 7.9 8.2 12.5 8.7 4.4.5 9.6-3.7 14.5-5.9 1.1-.5 2.2-1 3.4-1.5 1.7-.8 3.7-.3 4.8 1.2.6.8 1.3 1.6 1.9 2.5 1.6 2 .9 4.9-1.4 6.1-8.3 4.2-16.4 8.3-24.7 12.2-1 .5-3.9-.7-5.1-1.8-2.7-2.3-5.1-4.9-7.8-7.6-1.1-1-2.8-1.2-4.2-.4zM569.4-221.3c-5.4 3.4-10.5 6.6-15.9 10-1.7 1.1-4 .7-5.3-.9-1.6-2-3.1-3.8-4.3-5.8-.5-.7.6-2.7 1.7-3.3 7.8-4.8 15.6-9.6 23.7-14.1 1.4-.7 4.8-.3 6.2.6 4.4 2.8 7.9 8.2 12.5 8.7 4.4.5 9.6-3.7 14.5-5.9 1.1-.5 2.2-1 3.4-1.5 1.7-.8 3.7-.3 4.8 1.2.6.8 1.3 1.6 1.9 2.5 1.6 2 .9 4.9-1.4 6.1-8.3 4.2-16.4 8.3-24.7 12.2-1 .5-3.9-.7-5.1-1.8-2.7-2.3-5.1-4.9-7.8-7.6-1.1-1-2.9-1.2-4.2-.4zM473.8-465.2c-6.3.1-12.4.3-18.8.4-2 0-3.8-1.4-4.1-3.5-.4-2.5-.7-4.9-.7-7.2 0-.9 1.9-2 3.1-2 9.2-.2 18.3-.2 27.6.1 1.5.1 4.3 2.2 5 3.7 2.3 4.7 2.6 11.1 6.2 13.9 3.5 2.7 10.2 1.7 15.5 2.4 1.2.1 2.3.3 3.7.4 1.8.2 3.3 1.7 3.5 3.5.1 1 .2 2 .4 3.1.3 2.5-1.8 4.7-4.3 4.5-9.3-.7-18.4-1.3-27.4-2.2-1.1-.1-3-2.6-3.5-4.1-1.1-3.4-1.9-6.8-2.8-10.5-.4-1.5-1.8-2.5-3.4-2.5zM429.8-321.7c-5.4 3.4-10.5 6.6-15.9 10-1.7 1.1-4 .7-5.3-.9-1.6-2-3.1-3.8-4.3-5.8-.5-.7.6-2.7 1.7-3.3 7.8-4.8 15.6-9.6 23.7-14.1 1.4-.7 4.8-.3 6.2.6 4.4 2.8 7.9 8.2 12.5 8.7 4.4.5 9.6-3.7 14.5-5.9 1.1-.5 2.2-1 3.4-1.5 1.7-.8 3.7-.3 4.8 1.2.6.8 1.3 1.6 1.9 2.5 1.6 2 .9 4.9-1.4 6.1-8.3 4.2-16.4 8.3-24.7 12.2-1 .5-3.9-.7-5.1-1.8-2.7-2.3-5.1-4.9-7.8-7.6-1.1-1.1-2.8-1.3-4.2-.4zM240.9-146.3c-5.5-3.1-10.8-6-16.4-9.2-1.8-1-2.5-3.2-1.8-5.1 1-2.4 1.9-4.6 3-6.6.4-.8 2.6-.7 3.7-.1 8 4.5 15.9 9.1 23.7 14.1 1.3.8 2.6 4 2.5 5.8-.4 5.2-3.4 10.9-1.7 15.1 1.7 4.1 7.9 6.7 12.1 9.9.9.7 1.9 1.4 2.9 2.2 1.5 1.1 2 3.1 1.2 4.8-.4.9-.8 1.9-1.2 2.9-1 2.3-3.9 3.2-6 1.7-7.7-5.3-15.2-10.4-22.5-15.8-.9-.6-1.2-3.8-.9-5.3.8-3.5 1.8-6.9 2.9-10.5.6-1.5-.1-3.2-1.5-3.9zM179.5-319.1c.7.9.4 2.2-.6 2.7-11 5.2-11.1 5.1-17.2-3.9-3.4-5-6.8-10.1-10.5-15-1.8-2.4-1.5-4 1.4-5.6 4.3-2.4 11.2-4.8 11.9-7.9.9-3.9-3.2-8.6-5.4-12.9-1.6-3.1-3.8-5.7 2.1-7.9 5.3-2 7.8-1.3 10 3.1 3 6.1 6.6 12.1 10.3 18 1.7 2.7 1.3 4.3-1.9 6-12.7 6.8-12.6 6.8-4.6 17.3 1.6 2 3.1 4.1 4.5 6.1zM537.9-503.7c.7.9.4 2.2-.6 2.7-11 5.2-11.1 5.1-17.2-3.9-3.4-5-6.8-10.1-10.5-15-1.8-2.4-1.5-4 1.4-5.6 4.3-2.4 11.2-4.8 11.9-7.9.9-3.9-3.2-8.6-5.4-12.9-1.6-3.1-3.8-5.7 2.1-7.9 5.3-2 7.8-1.3 10 3.1 3 6.1 6.6 12.1 10.3 18 1.7 2.7 1.3 4.3-1.9 6-12.7 6.8-12.6 6.8-4.6 17.3 1.5 2 3 4 4.5 6.1zM287.1-45.8c.3 1.1-.4 2.2-1.6 2.3-12.1.9-12.2.8-14.7-9.8-1.4-5.9-2.7-11.8-4.4-17.7-.8-2.9 0-4.3 3.3-4.7 4.9-.7 12.2-.4 14-3.1 2.2-3.3.1-9.2-.4-14-.4-3.5-1.5-6.7 4.8-6.7 5.7.1 7.8 1.6 8.2 6.5.6 6.8 1.8 13.6 3.2 20.4.6 3.1-.3 4.4-3.9 4.9-14.3 1.8-14.3 1.9-10.5 14.5.8 2.5 1.4 4.9 2 7.4zM432.5-244.1c-.9 1.5-1.8 3-2.8 4.6-.9 1.6-2.9 2.2-4.5 1.4-8.6-3.9-17-7.7-25.6-11.6-2-.9-2.7-3.3-1.5-5.1 5.5-8.8 10.8-17.3 16.3-25.6.6-.9 3.2-1.6 4.6-1.4 1.3.2 2.5.5 3.8 1 2.1.7 3.1 3.2 1.9 5.1-2.7 4.7-5.3 9.3-8.3 13.7-2.8 4-2 5.9 2.1 7.4 4.3 1.7 8.3 3.7 12.7 5.9 1.6.9 2.2 3 1.3 4.6zM105.3-34c-.9 1.5-1.8 3-2.8 4.6-.9 1.6-2.9 2.2-4.5 1.4-8.6-3.9-17-7.7-25.6-11.6-2-.9-2.7-3.3-1.5-5.1 5.5-8.8 10.8-17.3 16.3-25.6.6-.9 3.2-1.6 4.6-1.4 1.3.2 2.5.5 3.8 1 2.1.7 3.1 3.2 1.9 5.1-2.7 4.7-5.3 9.3-8.3 13.7-2.8 4-2 5.9 2.1 7.4 4.3 1.7 8.3 3.7 12.7 5.9 1.7.9 2.3 3 1.3 4.6zM370.9-93.3c-1.7.4-3.4.7-5.3 1.1-1.8.4-3.5-.6-4.1-2.3-3-9-5.9-17.7-9-26.7-.7-2 .6-4.2 2.7-4.6 10.2-2 20-3.9 29.8-5.5 1.1-.2 3.4 1.3 4.2 2.4.8 1.1 1.3 2.2 1.9 3.5.9 2-.3 4.4-2.4 4.9-5.3 1.2-10.4 2.5-15.7 3.2-4.8.7-5.7 2.5-4.1 6.6 1.7 4.3 2.9 8.6 4.4 13.3.5 1.8-.6 3.7-2.4 4.1zM104.9-157.5c-1.7.4-3.4.7-5.3 1.1-1.8.4-3.5-.6-4.1-2.3-3-9-5.9-17.7-9-26.7-.7-2 .6-4.2 2.7-4.6 10.2-2 20-3.9 29.8-5.5 1.1-.2 3.4 1.3 4.2 2.4.8 1.1 1.3 2.2 1.9 3.5.9 2-.3 4.4-2.4 4.9-5.3 1.2-10.4 2.5-15.7 3.2-4.8.7-5.7 2.5-4.1 6.6 1.7 4.3 2.9 8.6 4.4 13.3.6 1.9-.5 3.7-2.4 4.1zM182.2-253.9c-1.7.4-3.4.7-5.3 1.1-1.8.4-3.5-.6-4.1-2.3-3-9-5.9-17.7-9-26.7-.7-2 .6-4.2 2.7-4.6 10.2-2 20-3.9 29.8-5.5 1.1-.2 3.4 1.3 4.2 2.4.8 1.1 1.3 2.2 1.9 3.5.9 2-.3 4.4-2.4 4.9-5.3 1.2-10.4 2.5-15.7 3.2-4.8.7-5.7 2.5-4.1 6.6 1.7 4.3 2.9 8.6 4.4 13.3.5 1.9-.6 3.7-2.4 4.1zM334.1-132.6c-.9 1.5-1.8 3-2.8 4.6-.9 1.6-2.9 2.2-4.5 1.4-8.6-3.9-17-7.7-25.6-11.6-2-.9-2.7-3.3-1.5-5.1 5.5-8.8 10.8-17.3 16.3-25.6.6-.9 3.2-1.6 4.6-1.4 1.3.2 2.5.5 3.8 1 2.1.7 3.1 3.2 1.9 5.1-2.7 4.7-5.3 9.3-8.3 13.7-2.8 4-2 5.9 2.1 7.4 4.3 1.7 8.3 3.7 12.7 5.9 1.6.9 2.3 3 1.3 4.6zM535.2-572c-1.8.1-3.5.2-5.4.2-1.8.1-3.4-1.2-3.7-3-1.5-9.4-2.9-18.5-4.4-27.8-.3-2.1 1.3-4.1 3.4-4.1 10.4-.2 20.4-.5 30.3-.4 1.1 0 3.1 1.8 3.7 3.1.6 1.2.9 2.4 1.3 3.7.6 2.2-1 4.3-3.2 4.4-5.4.3-10.7.7-16 .6-4.9-.1-6 1.5-5.1 5.8 1 4.5 1.4 9 2.1 13.9.3 1.8-1.2 3.5-3 3.6zM473.4-393.6c1.2 1.3 2.4 2.5 3.7 3.9 1.3 1.3 1.3 3.3.2 4.7-6.1 7.3-11.9 14.4-18 21.7-1.4 1.7-3.9 1.7-5.3.1-7.1-7.7-13.8-15-20.4-22.5-.7-.8-.7-3.5-.1-4.8.5-1.2 1.2-2.3 1.9-3.5 1.2-1.9 3.9-2.1 5.5-.5 3.8 3.9 7.6 7.6 11 11.7 3.2 3.7 5.1 3.5 7.7 0 2.7-3.7 5.8-7 9-10.7 1.3-1.4 3.5-1.5 4.8-.1zM413.1-544.4c1.8-.2 3.5-.5 5.3-.7 1.8-.2 3.5.9 3.9 2.7 2.3 9.2 4.5 18.1 6.8 27.3.5 2.1-.9 4.1-3.1 4.4-10.4 1.1-20.2 2.2-30.2 3.1-1.1.1-3.2-1.6-4-2.7-.7-1.1-1.2-2.3-1.6-3.6-.8-2.1.6-4.4 2.8-4.7 5.4-.8 10.6-1.6 15.9-2 4.9-.3 5.9-2.1 4.6-6.2-1.3-4.4-2.2-8.8-3.3-13.6-.3-1.9 1-3.7 2.9-4zM234.2-371c1.7-3.3 5.7-4.5 9-2.8 3.2 1.8 4.4 5.9 2.7 9.2-1.7 3.3-5.7 4.5-8.9 2.8-3.3-1.8-4.5-5.9-2.8-9.2M314.4-275.6c1.7-3.3 5.7-4.5 9-2.8 3.2 1.8 4.4 5.9 2.7 9.2-1.7 3.3-5.7 4.5-8.9 2.8-3.3-1.8-4.5-5.9-2.8-9.2M461.3-59.6c1.7-3.3 5.7-4.5 9-2.8 3.2 1.8 4.4 5.9 2.7 9.2-1.7 3.3-5.7 4.5-8.9 2.8-3.3-1.9-4.5-6-2.8-9.2M221.8-74.9c1.7-3.3 5.7-4.5 9-2.8 3.2 1.8 4.4 5.9 2.7 9.2-1.7 3.3-5.7 4.5-8.9 2.8-3.3-1.8-4.5-5.9-2.8-9.2M119.7-88.5c1.7-3.3 5.7-4.5 9-2.8 3.2 1.8 4.4 5.9 2.7 9.2-1.7 3.3-5.7 4.5-8.9 2.8-3.4-1.8-4.6-5.9-2.8-9.2M461.3-295.3c1.7-3.3 5.7-4.5 9-2.8 3.2 1.8 4.4 5.9 2.7 9.2-1.7 3.3-5.7 4.5-8.9 2.8-3.3-1.8-4.5-5.9-2.8-9.2M177.4-173.5c1.7-3.3 5.7-4.5 9-2.8 3.2 1.8 4.4 5.9 2.7 9.2-1.7 3.3-5.7 4.5-8.9 2.8-3.3-1.8-4.6-5.9-2.8-9.2M444.4-432c1.7-3.3 5.7-4.5 9-2.8 3.2 1.8 4.4 5.9 2.7 9.2-1.7 3.3-5.7 4.5-8.9 2.8-3.3-1.8-4.5-5.9-2.8-9.2M520.9-242.9c1.8-3.2 5.8-4.4 9-2.5 3.2 1.9 4.3 6 2.5 9.2-1.8 3.2-5.8 4.4-9 2.5-3.2-1.8-4.3-5.9-2.5-9.2M410.4-114.9c1.7-3.3 5.7-4.5 9-2.8 3.2 1.8 4.4 5.9 2.7 9.2-1.7 3.3-5.7 4.5-8.9 2.8-3.3-1.8-4.5-5.9-2.8-9.2M100-435.4c1.7-3.3 5.7-4.5 9-2.8 3.2 1.8 4.4 5.9 2.7 9.2-1.7 3.3-5.7 4.5-8.9 2.8-3.4-1.9-4.6-5.9-2.8-9.2M67.2-536.3c1.7-3.3 5.7-4.5 9-2.8 3.2 1.8 4.4 5.9 2.7 9.2-1.7 3.3-5.7 4.5-8.9 2.8-3.3-1.9-4.5-6-2.8-9.2M114.4-398.6c1.7-3.3 5.7-4.5 9-2.8 3.2 1.8 4.4 5.9 2.7 9.2-1.7 3.3-5.7 4.5-8.9 2.8-3.3-1.8-4.5-5.9-2.8-9.2M215.2-500.7c1.7-3.3 5.7-4.5 9-2.8 3.2 1.8 4.4 5.9 2.7 9.2-1.7 3.3-5.7 4.5-8.9 2.8-3.3-1.8-4.5-5.9-2.8-9.2M402.3-592.7c1.7-3.3 5.7-4.5 9-2.8 3.2 1.8 4.4 5.9 2.7 9.2-1.7 3.3-5.7 4.5-8.9 2.8-3.3-1.8-4.5-5.9-2.8-9.2M461.3-536.3c1.7-3.3 5.7-4.5 9-2.8 3.2 1.8 4.4 5.9 2.7 9.2-1.7 3.3-5.7 4.5-8.9 2.8-3.3-1.9-4.5-6-2.8-9.2M314.4-477.4c1.7-3.3 5.7-4.5 9-2.8 3.2 1.8 4.4 5.9 2.7 9.2-1.7 3.3-5.7 4.5-8.9 2.8-3.3-1.8-4.5-5.9-2.8-9.2M257.4-561.4c1.7-3.3 5.7-4.5 9-2.8 3.2 1.8 4.4 5.9 2.7 9.2-1.7 3.3-5.7 4.5-8.9 2.8-3.4-1.8-4.6-5.9-2.8-9.2M160.5-585.9c1.7-3.3 5.7-4.5 9-2.8 3.2 1.8 4.4 5.9 2.7 9.2-1.7 3.3-5.7 4.5-8.9 2.8-3.3-1.8-4.6-5.9-2.8-9.2"/><g><path class="st1" d="M35.9-119.9c-2 5.4-3.8 10.2-5.6 15-3.1 8.1-3.3 8.6-12.6 5.7-1.2-.4-1.8-1.6-1.4-2.8 1.5-4.7 3.1-9.4 4.7-14.1 1.5-4.5 3.5-9 4.7-13.6 1.1-4.3 3.4-4.9 8.1-3 4.8 1.9 9.9 3.3 14.8 5 3.8 1.4 6.1.8 8.2-2.4 7.1-11.3 7.3-11.2 21.3-5.7 5.6 2.2 11.3 4.2 16.7 6.7 1.2.5 2.2 3.2 1.6 4.2-4.2 7.2-4.5 7.2-13.4 3.8-12.8-4.9-13.1-5-19.8 4.8-3 4.4-5.9 4.9-11 2.6-5-2.2-10.4-4-16.3-6.2M15-409.1c1.3-2.4 4.5-2.9 6.4-1.1 3.8 3.6 7.5 7 11 10.6 2.6 2.6 4.3 2.6 6.5-.6 3.1-4.4 6.2-11.1 10-11.8 3.9-.8 8.7 4.4 13.1 7.2 3.9 2.4 7.7 5.2 11.7 7.5 3.3 1.9 4.1 4.1 2.3 7.9-.4.8-.7 1.7-1.1 2.5-1.1 2.9-4.5 4-7.1 2.4-4.2-2.6-8.3-5.1-12.4-7.8-3-2-5-1.8-7.3 1.2-2.6 3.5-5.4 6.9-8.4 10.6-1.8 2.2-5.1 2.4-7.2.4-6.7-6.6-11.6-11.3-18.1-18-.6-.6-2.9-2.9-2.1-5.7.7-1.9 1.8-3.5 2.7-5.3zM1.7-160.1c-2-1.4-2.2-4.7-.7-6.7 7.1-8.9 14.2-16.7 20.3-25.8 1.8-2.6 6.5-3.1 8.1-2.1 11.6 6.9 22.4 14.9 33.8 22.1 2.7 1.7 3 3.5-.1 8.2-1.6 2.5-3.5 4.8-8.1 1.9-7.2-4.5-14.3-9.3-21.3-14.2-3.7-2.6-5.9-2.4-8.1.4-4.1 5.2-8.4 10.3-12.6 15.5-4.2 5.5-4.2 5.5-11.3.7-.2-.1.2.1 0 0zM60.9-221.3c-5.4 3.4-10.5 6.6-15.9 10-1.7 1.1-4 .7-5.3-.9-1.6-2-3.1-3.8-4.3-5.8-.5-.7.6-2.7 1.7-3.3 7.8-4.8 15.6-9.6 23.7-14.1 1.4-.7 4.8-.3 6.2.6 4.4 2.8 7.9 8.2 12.5 8.7 4.4.5 9.6-3.7 14.5-5.9 1.1-.5 2.2-1 3.4-1.5 1.7-.8 3.7-.3 4.8 1.2.6.8 1.3 1.6 1.9 2.5 1.6 2 .9 4.9-1.4 6.1-8.3 4.2-16.4 8.3-24.7 12.2-1 .5-3.9-.7-5.1-1.8-2.7-2.3-5.1-4.9-7.8-7.6-1.1-1-2.9-1.2-4.2-.4z"/></g><g><path class="st1" d="M380.4-633.6c5.5-1.9 10.3-3.6 15.1-5.3 8.1-2.8 8.7-3 12.5 6 .5 1.1-.1 2.4-1.2 2.9-4.6 1.8-9.2 3.7-13.9 5.5-4.5 1.7-9.1 3.1-13.4 5.1-4 1.9-6 .5-7.5-4.2-1.6-4.9-3.9-9.7-5.6-14.6-1.4-3.8-3.3-5.2-7.1-4.7-13.2 1.7-13.3 1.6-18-12.7-1.9-5.7-4.1-11.4-5.6-17.1-.3-1.3 1.1-3.7 2.2-3.9 8.2-1.4 8.4-1.2 11.5 7.8 4.4 12.9 4.5 13.3 16.3 12.1 5.4-.5 7.5 1.4 9 6.8 1.5 5.1 3.6 10.3 5.7 16.3M179.5-623c-.8-1.6-1.4-2.7-2-3.8-3.9-6.8-7.7-13.6-11.8-20.3-3.5-5.7 3.4-4.7 5.9-6.7 2.8-2.1 5.2-.9 6.6 1.6 5.7 9.9 11.6 19.8 17.5 29.6 1.8 3 1.6 5-2.4 6.7-11.6 4.9-23.1 10-34.5 15-3.1 1.4-6 2.4-7.5-1.4-1.2-3.1-5.3-7 1.8-9.5 7.7-2.7 25.1-10.4 26.4-11.2M554.5-637.5c.7 2.4-1.3 5.1-3.7 5.6-11.2 2.4-21.6 3.9-32.1 7.1-3.1.9-6.9-1.7-7.6-3.5-4.5-12.7-7.9-25.7-12.1-38.5-1-3-.1-4.6 5.3-6.3 2.8-.9 5.7-1.5 7.5 3.6 2.7 8.1 5.2 16.3 7.5 24.5 1.2 4.3 3.1 5.6 6.5 4.8 6.5-1.5 13.1-2.6 19.6-4 6.7-1.5 6.7-1.6 9.1 6.7.1.2 0-.2 0 0zM287.1-645.3c.3 1.1-.4 2.2-1.6 2.3-12.1.9-12.2.8-14.7-9.8-1.4-5.9-2.7-11.8-4.4-17.7-.8-2.9 0-4.3 3.3-4.7 4.9-.7 12.2-.4 14-3.1 2.2-3.3.1-9.2-.4-14-.4-3.5-1.5-6.7 4.8-6.7 5.7.1 7.8 1.6 8.2 6.5.6 6.8 1.8 13.6 3.2 20.4.6 3.1-.3 4.4-3.9 4.9-14.3 1.8-14.3 1.9-10.5 14.5.8 2.5 1.4 4.9 2 7.4zM105.3-633.5c-.9 1.5-1.8 3-2.8 4.6-.9 1.6-2.9 2.2-4.5 1.4-8.6-3.9-17-7.7-25.6-11.6-2-.9-2.7-3.3-1.5-5.1 5.5-8.8 10.8-17.3 16.3-25.6.6-.9 3.2-1.6 4.6-1.4 1.3.2 2.5.5 3.8 1 2.1.7 3.1 3.2 1.9 5.1-2.7 4.7-5.3 9.3-8.3 13.7-2.8 4-2 5.9 2.1 7.4 4.3 1.7 8.3 3.7 12.7 5.9 1.7.9 2.3 2.9 1.3 4.6z"/></g></pattern><pattern id="SVGID_1_" xlink:href="#New_Pattern_2" patternTransform="translate(61.516 -254)"/><path class="st2" d="M0 0h1492.7v1300H0z"/></svg>